<svg width="42" height="42" viewBox="0 0 42 42" fill="none" xmlns="http://www.w3.org/2000/svg">
<g clip-path="url(#clip0_1_946)" filter="url(#filter0_d_1_946)">
<path d="M21.0122 0H21.0037C11.6345 0 4.01562 7.62104 4.01562 16.9923C4.01562 20.7093 5.21358 24.1545 7.25053 26.9519L5.13287 33.2645L11.6643 31.1766C14.3512 32.9565 17.5564 33.9846 21.0122 33.9846C30.3813 33.9846 38.0002 26.3614 38.0002 16.9923C38.0002 7.62317 30.3813 0 21.0122 0Z" fill="#4CAF50"/>
<path d="M30.8989 23.9955C30.489 25.1531 28.862 26.1131 27.5642 26.3935C26.6763 26.5826 25.5166 26.7334 21.6126 25.1148C16.619 23.046 13.4032 17.9717 13.1526 17.6425C12.9126 17.3133 11.1348 14.9556 11.1348 12.5172C11.1348 10.0788 12.3731 8.89146 12.8722 8.38169C13.2822 7.96326 13.9597 7.77209 14.6097 7.77209C14.82 7.77209 15.009 7.78272 15.1789 7.79121C15.6781 7.81245 15.9287 7.84219 16.2579 8.63021C16.6679 9.61788 17.6662 12.0563 17.7851 12.3069C17.9062 12.5575 18.0273 12.8974 17.8573 13.2266C17.698 13.5665 17.5578 13.7173 17.3072 14.0061C17.0566 14.295 16.8187 14.5159 16.568 14.826C16.3387 15.0958 16.0795 15.3846 16.3684 15.8838C16.6573 16.3723 17.6556 18.0014 19.1254 19.3099C21.0222 20.9985 22.56 21.538 23.1101 21.7674C23.52 21.9373 24.0085 21.8969 24.308 21.5783C24.6882 21.1684 25.1576 20.4887 25.6356 19.8196C25.9754 19.3396 26.4045 19.2801 26.8548 19.45C27.3135 19.6093 29.7413 20.8094 30.2405 21.0579C30.7396 21.3086 31.0688 21.4275 31.1899 21.6378C31.3089 21.8481 31.3089 22.8358 30.8989 23.9955Z" fill="#FAFAFA"/>
</g>
<defs>
<filter id="filter0_d_1_946" x="0.015625" y="0" width="41.9844" height="41.9846" filterUnits="userSpaceOnUse" color-interpolation-filters="sRGB">
<feFlood flood-opacity="0" result="BackgroundImageFix"/>
<feColorMatrix in="SourceAlpha" type="matrix" values="0 0 0 0 0 0 0 0 0 0 0 0 0 0 0 0 0 0 127 0" result="hardAlpha"/>
<feOffset dy="4"/>
<feGaussianBlur stdDeviation="2"/>
<feComposite in2="hardAlpha" operator="out"/>
<feColorMatrix type="matrix" values="0 0 0 0 0 0 0 0 0 0 0 0 0 0 0 0 0 0 0.25 0"/>
<feBlend mode="normal" in2="BackgroundImageFix" result="effect1_dropShadow_1_946"/>
<feBlend mode="normal" in="SourceGraphic" in2="effect1_dropShadow_1_946" result="shape"/>
</filter>
<clipPath id="clip0_1_946">
<rect width="33.9846" height="33.9846" fill="white" transform="translate(4.01562)"/>
</clipPath>
</defs>
</svg>
